<?xml version="1.0" encoding="iso-8859-1"?>
<!-- Uploaded to: SVG Repo, www.svgrepo.com, Generator: SVG Repo Mixer Tools -->
<svg version="1.1" id="Layer_1" xmlns="http://www.w3.org/2000/svg" xmlns:xlink="http://www.w3.org/1999/xlink" 
	 viewBox="0 0 512 512" xml:space="preserve">
<g>
	<polygon style="fill:#57545C;" points="360.56,265.214 360.56,83.654 396.703,83.654 396.703,283.49 	"/>
	<polygon style="fill:#57545C;" points="65.728,209.547 65.728,136.56 100.79,136.56 100.79,202.973 	"/>
</g>
<path style="fill:#ACAAB1;" d="M330.981,453.575H106.166C47.532,453.575,0,406.043,0,347.408V302.34
	c0-67.016,61.326-117.268,127.034-104.096l224.815,45.068c49.602,9.943,85.299,53.506,85.299,104.096l0,0
	C437.148,406.043,389.615,453.575,330.981,453.575z"/>
<path style="fill:#DFDFE2;" d="M117.791,379.705c-22.473-7.721-38.622-29.041-38.622-54.134c0-31.604,25.62-57.225,57.225-57.225
	s57.225,25.62,57.225,57.225c0,25.29-16.406,46.748-39.154,54.313L117.791,379.705z"/>
<path style="fill:#52A2E7;" d="M138.23,142.55H27.421c-5.877,0-10.641-4.764-10.641-10.641V99.651
	c0-9.43,8.606-16.518,17.862-14.708L136.759,104.9c7.036,1.376,12.112,7.54,12.112,14.708v12.299
	C148.871,137.785,144.107,142.55,138.23,142.55z"/>
<rect x="33.56" y="453.577" style="fill:#3E3B43;" width="379.493" height="35.066"/>
<path style="fill:#57545C;" d="M154.465,406.918h-36.142v-78.606c0-8.762,7.102-15.864,15.864-15.864h4.416
	c8.762,0,15.863,7.102,15.863,15.864v78.606H154.465z"/>
<g>
	<path style="fill:#3E3B43;" d="M360.56,95.265c5.376,2.906,11.53,4.557,18.071,4.557c6.541,0,12.695-1.651,18.071-4.557v-11.61
		h-36.142v11.61H360.56z"/>
	<rect x="33.56" y="488.636" style="fill:#3E3B43;" width="45.608" height="23.317"/>
	<rect x="367.447" y="488.636" style="fill:#3E3B43;" width="45.608" height="23.317"/>
	<rect x="65.728" y="142.555" style="fill:#3E3B43;" width="35.062" height="14.86"/>
</g>
<path style="fill:#77757E;" d="M373.398,44.768L499.809,0.362c2.968-1.043,6.208,0.595,7.127,3.603l4.821,15.763
	c0.865,2.829-0.647,5.838-3.432,6.831L395.762,66.725L373.398,44.768z"/>
<circle style="fill:#57545C;" cx="378.634" cy="61.764" r="28.38"/>
<rect x="98.53" y="396.438" style="fill:#3E3B43;" width="74.867" height="29.523"/>
<rect x="118.324" y="386.835" style="fill:#1D1D20;" width="36.142" height="9.602"/>
<g style="opacity:0.28;">
	<path style="fill:#3E3B43;" d="M0,324.857v22.552c0,58.635,47.532,106.166,106.166,106.166h224.815
		c58.635,0,106.166-47.533,106.166-106.166l0,0c0-7.713-0.84-15.26-2.422-22.551H0V324.857z"/>
</g>
</svg>