<?xml version="1.0" encoding="iso-8859-1"?>
<!-- Uploaded to: SVG Repo, www.svgrepo.com, Generator: SVG Repo Mixer Tools -->
<svg height="800px" width="800px" version="1.1" id="Layer_1" xmlns="http://www.w3.org/2000/svg" xmlns:xlink="http://www.w3.org/1999/xlink" 
	 viewBox="0 0 512 512" xml:space="preserve">
<g transform="translate(-1)">
	<path style="fill:#546A79;" d="M513,256C513,114.617,398.383,0,257,0S1,114.617,1,256s114.617,256,256,256S513,397.383,513,256"/>
	<path style="fill:#38454F;" d="M257,476.69c-121.688,0-220.69-99.001-220.69-220.69S135.312,35.31,257,35.31
		S477.69,134.312,477.69,256S378.688,476.69,257,476.69"/>
	<path style="fill:#546A79;" d="M312.717,299.234c9.304-11.961,14.901-26.942,14.901-43.238c0-16.287-5.597-31.267-14.901-43.229
		l74.108-74.116c3.452-3.443,3.452-9.031,0-12.482c-3.443-3.443-9.031-3.443-12.482,0l-74.108,74.116
		c-11.961-9.304-26.942-14.91-43.237-14.91c-16.287,0-31.267,5.605-43.229,14.91l-74.116-74.116c-3.443-3.443-9.031-3.443-12.482,0
		c-3.443,3.452-3.443,9.039,0,12.482l74.116,74.116c-9.304,11.961-14.91,26.942-14.91,43.229c0,16.296,5.605,31.276,14.91,43.238
		l-74.116,74.108c-3.443,3.452-3.443,9.039,0,12.482c1.73,1.73,3.981,2.586,6.241,2.586s4.52-0.856,6.241-2.586l74.116-74.108
		c11.961,9.304,26.942,14.901,43.229,14.901c16.296,0,31.276-5.597,43.237-14.901l74.108,74.108c1.73,1.73,3.981,2.586,6.241,2.586
		c2.26,0,4.52-0.856,6.241-2.586c3.452-3.443,3.452-9.031,0-12.482L312.717,299.234z"/>
	<path style="fill:#38454F;" d="M257,220.69c-19.474,0-35.31,15.837-35.31,35.31s15.837,35.31,35.31,35.31s35.31-15.837,35.31-35.31
		S276.474,220.69,257,220.69"/>
</g>
</svg>